<svg width="200" height="200" viewBox="0 0 200 200" fill="none" xmlns="http://www.w3.org/2000/svg">
<rect width="200" height="200" fill="#6E66D4"/>
<path d="M123.48 67.36L116.52 63.36L100 92C98.4178 92 96.871 92.4692 95.5554 93.3482C94.2399 94.2273 93.2145 95.4767 92.609 96.9385C92.0035 98.4003 91.845 100.009 92.1537 101.561C92.4624 103.113 93.2243 104.538 94.3432 105.657C95.462 106.776 96.8874 107.538 98.4393 107.846C99.9911 108.155 101.6 107.997 103.061 107.391C104.523 106.786 105.773 105.76 106.652 104.445C107.531 103.129 108 101.582 108 100C107.998 98.5949 107.625 97.2153 106.92 96L123.48 67.36Z" fill="#F7FADC"/>
<path d="M100 44C88.9243 44 78.0972 47.2843 68.8881 53.4377C59.6789 59.5911 52.5013 68.3371 48.2628 78.5697C44.0243 88.8024 42.9153 100.062 45.076 110.925C47.2368 121.788 52.5703 131.766 60.402 139.598C68.2338 147.43 78.212 152.763 89.075 154.924C99.9379 157.085 111.198 155.976 121.43 151.737C131.663 147.499 140.409 140.321 146.562 131.112C152.716 121.903 156 111.076 156 100C156 85.1479 150.1 70.9041 139.598 60.402C129.096 49.9 114.852 44 100 44ZM100 52C109.662 52.0111 119.096 54.9378 127.067 60.3974C135.039 65.857 141.178 73.5952 144.68 82.6C139.923 80.221 134.988 78.215 129.92 76.6L125.92 83.68C133.519 85.9093 140.794 89.1232 147.56 93.24C148.253 97.72 148.253 102.28 147.56 106.76C133.216 115.439 116.766 120.018 100 120C83.2615 120.004 66.8413 115.425 52.52 106.76C51.8267 102.28 51.8267 97.72 52.52 93.24C65.6638 85.228 80.6216 80.6732 96 80V72C81.8568 72.5487 67.9912 76.0935 55.32 82.4C58.8542 73.4326 65.0063 65.7369 72.9754 60.3148C80.9444 54.8927 90.3613 51.9954 100 52ZM100 148C90.338 147.989 80.9043 145.062 72.9326 139.603C64.961 134.143 58.8225 126.405 55.32 117.4C69.1834 124.368 84.484 127.998 100 128C115.516 127.998 130.817 124.368 144.68 117.4C141.178 126.405 135.039 134.143 127.067 139.603C119.096 145.062 109.662 147.989 100 148Z" fill="#F7FADC"/>
</svg>
